<svg width="20" height="22" viewBox="0 0 20 22" fill="none" xmlns="http://www.w3.org/2000/svg">
<path fill-rule="evenodd" clip-rule="evenodd" d="M14.5286 5C14.5099 4.9193 14.4905 4.83842 14.4702 4.75746C14.2062 3.70138 13.7905 2.55383 13.1126 1.65C12.4136 0.71802 11.393 0 10.0001 0C8.60716 0 7.58654 0.71802 6.88755 1.65C6.20968 2.55383 5.79393 3.70138 5.52991 4.75747C5.50967 4.83842 5.49022 4.9193 5.47151 5H3.87116C2.29177 5 0.982874 6.22455 0.877814 7.80044L0.144474 18.8004C0.0290445 20.532 1.40244 22 3.13783 22H16.8623C18.5977 22 19.9711 20.532 19.8557 18.8004L19.1223 7.80044C19.0173 6.22455 17.7084 5 16.129 5H14.5286ZM5.47151 13.5C6.04449 13.5 6.99812 9.5684 7.00007 8.99817C7.00022 8.97438 7.0005 8.9506 7.0009 8.92682C7.00178 8.87413 7.00357 8.79455 7.00724 8.69194C7.01457 8.48652 7.02936 8.18999 7.05911 7.83304C7.08021 7.57976 7.10864 7.29862 7.1468 7H12.8534C12.8915 7.29862 12.9199 7.57976 12.9411 7.83305C12.9708 8.18999 12.9856 8.48652 12.9929 8.69194C12.9966 8.79455 12.9984 8.87413 12.9993 8.92682C12.9997 8.95134 13 8.97587 13.0001 9.0004C13.0001 9.0004 13.4702 13.5 14.4702 13.5C15.4702 13.5 15.0001 8.99866 15.0001 8.99866C15 8.9636 14.9996 8.92854 14.999 8.89349C14.9979 8.829 14.9958 8.7367 14.9916 8.62056C14.9834 8.38848 14.9669 8.06001 14.9341 7.66695C14.9171 7.46202 14.8954 7.23812 14.868 7H16.129C16.6555 7 17.0918 7.40818 17.1268 7.93348L17.8601 18.9335C17.8986 19.5107 17.4408 20 16.8623 20H3.13783C2.55937 20 2.10157 19.5107 2.14004 18.9335L2.87338 7.93348C2.9084 7.40818 3.3447 7 3.87116 7H5.13214C5.10471 7.23812 5.08309 7.46202 5.06601 7.66696C5.03326 8.06001 5.0168 8.38848 5.00851 8.62056C5.00436 8.7367 5.00225 8.829 5.00118 8.89349C5.0006 8.92785 5.00017 8.96221 5.00006 8.99658C4.9993 9.5672 4.89984 13.5 5.47151 13.5ZM7.53358 5H12.4666C12.2354 4.15322 11.9211 3.39466 11.5126 2.85C11.0866 2.28198 10.6072 2 10.0001 2C9.39297 2 8.91356 2.28198 8.48757 2.85C8.07906 3.39466 7.76478 4.15322 7.53358 5Z" fill="#0F0F0F"/>
</svg>
